<?xml version="1.0" encoding="UTF-8"?>
<!DOCTYPE svg PUBLIC "-//W3C//DTD SVG 1.1//EN" "http://www.w3.org/Graphics/SVG/1.1/DTD/svg11.dtd">
<svg xmlns="http://www.w3.org/2000/svg" version="1.1" width="2000px" height="2000px" style="shape-rendering:geometricPrecision; text-rendering:geometricPrecision; image-rendering:optimizeQuality; fill-rule:evenodd; clip-rule:evenodd" xmlns:xlink="http://www.w3.org/1999/xlink">
<g><path style="opacity:0.996" fill="#fefefe" d="M 579.5,-0.5 C 797.5,-0.5 1015.5,-0.5 1233.5,-0.5C 1259.17,5.3318 1276.67,20.6651 1286,45.5C 1345.48,226.611 1406.15,407.277 1468,587.5C 1573.07,631.578 1664.07,695.578 1741,779.5C 1825.04,874.037 1891.04,980.37 1939,1098.5C 1960.49,1151.49 1979.16,1205.49 1995,1260.5C 2002.04,1290.01 1995.71,1316.35 1976,1339.5C 1952.25,1364.47 1924.42,1383.63 1892.5,1397C 1864.28,1409.57 1834.95,1418.41 1804.5,1423.5C 1846.91,1511.39 1863.41,1604.06 1854,1701.5C 1848.92,1763.07 1831.92,1821.07 1803,1875.5C 1777.62,1922.21 1741.12,1957.38 1693.5,1981C 1672.25,1990.31 1650.25,1996.48 1627.5,1999.5C 1226.83,1999.5 826.167,1999.5 425.5,1999.5C 374.016,1990.19 341.516,1960.19 328,1909.5C 324.956,1895.19 324.789,1880.86 327.5,1866.5C 311.83,1866.67 296.163,1866.5 280.5,1866C 227.967,1857.66 194.8,1827.82 181,1776.5C 177.945,1762.52 177.779,1748.52 180.5,1734.5C 138.996,1733.5 106.496,1716.17 83,1682.5C 67.3035,1653.79 63.1368,1623.46 70.5,1591.5C 65.6502,1589.76 60.6502,1588.6 55.5,1588C 20.63,1565.28 2.29663,1532.95 0.5,1491C 3.35783,1434.8 32.0245,1399.47 86.5,1385C 94.0717,1383.13 101.738,1381.79 109.5,1381C 143.035,1379 176.535,1377.5 210,1376.5C 328.333,1127.17 446.667,877.833 565,628.5C 607.774,538.173 649.774,447.506 691,356.5C 701.485,329.011 703.151,301.011 696,272.5C 691.592,265.744 685.425,261.911 677.5,261C 643.14,259.519 608.807,257.853 574.5,256C 544.588,246.414 528.421,225.914 526,194.5C 525.05,146.812 525.384,99.1456 527,51.5C 533.796,23.2028 551.296,5.86951 579.5,-0.5 Z M 755.5,930.5 C 825.372,781.396 895.538,632.396 966,483.5C 986.988,555.116 1007.82,626.782 1028.5,698.5C 1024.32,701.088 1020.32,703.921 1016.5,707C 1018.12,707.853 1018.46,708.853 1017.5,710C 949.51,760.64 883.843,814.307 820.5,871C 798.663,890.671 776.997,910.504 755.5,930.5 Z"/></g>
<g><path style="opacity:1" fill="#d8291a" d="M 354.5,1386.5 C 326.995,1386.83 299.662,1386.5 272.5,1385.5C 353.17,1213.16 434.67,1041.16 517,869.5C 593.966,707.593 669.966,545.259 745,382.5C 762.218,339.572 764.551,295.905 752,251.5C 733.012,213.594 702.179,196.427 659.5,200C 636.501,199.314 613.501,198.648 590.5,198C 589,196.5 587.5,195 586,193.5C 585.333,150.167 585.333,106.833 586,63.5C 587.5,62 589,60.5 590.5,59C 801.167,58.3333 1011.83,58.3333 1222.5,59C 1224.67,60.5 1226.83,62 1229,63.5C 1268.86,182.76 1308.53,302.093 1348,421.5C 1370.92,485.101 1392.76,549.101 1413.5,613.5C 1412.5,613.833 1411.5,614.167 1410.5,614.5C 1355.07,605.086 1300.41,608.252 1246.5,624C 1191.27,642.034 1139.44,666.867 1091,698.5C 1070.73,630.009 1051.06,561.342 1032,492.5C 1024.22,465.613 1014.22,439.613 1002,414.5C 992.052,398.277 977.552,392.111 958.5,396C 947.82,401.012 939.32,408.512 933,418.5C 926.321,427.851 920.654,437.851 916,448.5C 807.333,679.167 698.667,909.833 590,1140.5C 531.416,1201.03 473.749,1262.36 417,1324.5C 396.299,1345.37 375.465,1366.03 354.5,1386.5 Z"/></g>
<g><path style="opacity:1" fill="#3d55a1" d="M 1361.5,634.5 C 1363.47,633.837 1365.64,633.504 1368,633.5C 1387.34,634.184 1406.51,636.351 1425.5,640C 1417.63,641.31 1409.8,643.143 1402,645.5C 1388.68,641.113 1375.18,637.446 1361.5,634.5 Z"/></g>
<g><path style="opacity:1" fill="#314d9c" d="M 1274.5,650.5 C 1303.91,649.337 1332.91,652.17 1361.5,659C 1318.58,679.89 1281.41,708.39 1250,744.5C 1236.56,760.763 1223.73,777.43 1211.5,794.5C 1177.7,770.251 1145.37,744.085 1114.5,716C 1150.67,691.415 1189.67,672.415 1231.5,659C 1245.78,655.34 1260.12,652.506 1274.5,650.5 Z"/></g>
<g><path style="opacity:1" fill="#324e9c" d="M 1448.5,663.5 C 1471.9,661.799 1494.9,664.633 1517.5,672C 1549.91,688.527 1579.91,708.527 1607.5,732C 1630.1,751.268 1651.44,771.935 1671.5,794C 1661.49,793.111 1651.49,791.778 1641.5,790C 1628.18,789.112 1614.84,788.445 1601.5,788C 1570.16,744.321 1531.49,708.654 1485.5,681C 1473.66,674.079 1461.33,668.246 1448.5,663.5 Z"/></g>
<g><path style="opacity:1" fill="#304d9c" d="M 1398.5,670.5 C 1470.26,692.026 1528.92,732.359 1574.5,791.5C 1535.48,801.425 1502.64,821.425 1476,851.5C 1461.62,867.933 1448.95,885.599 1438,904.5C 1431.74,916.694 1425.24,928.694 1418.5,940.5C 1355.75,897.25 1293.42,853.417 1231.5,809C 1257.6,769.234 1289.6,734.901 1327.5,706C 1349.6,690.952 1373.26,679.119 1398.5,670.5 Z"/></g>
<g><path style="opacity:1" fill="#314d9c" d="M 1092.5,729.5 C 1109.65,744.475 1126.98,759.308 1144.5,774C 1162.56,788.076 1180.56,802.076 1198.5,816C 1171.88,861.757 1151.71,910.257 1138,961.5C 1133.61,978.275 1130.44,995.275 1128.5,1012.5C 1099.3,1016.76 1070.63,1023.43 1042.5,1032.5C 1035.27,974.786 1025.77,917.452 1014,860.5C 1011.94,850.58 1009.1,840.913 1005.5,831.5C 933.777,885.225 864.443,942.059 797.5,1002C 695.624,1095.87 594.957,1191.2 495.5,1288C 486.667,1296.17 477.833,1304.33 469,1312.5C 468.833,1312.17 468.667,1311.83 468.5,1311.5C 620.683,1137.81 785.016,976.979 961.5,829C 1004.22,794.435 1047.88,761.268 1092.5,729.5 Z"/></g>
<g><path style="opacity:1" fill="#304d9c" d="M 1619.5,814.5 C 1648.37,813.925 1676.37,819.092 1703.5,830C 1738.25,867.378 1769.75,907.211 1798,949.5C 1800.26,987.141 1783.76,1012.64 1748.5,1026C 1740.86,1029 1733.19,1030.83 1725.5,1031.5C 1698.89,954.624 1663.56,882.291 1619.5,814.5 Z"/></g>
<g><path style="opacity:1" fill="#304d9c" d="M 1586.5,813.5 C 1588.72,813.178 1590.56,813.845 1592,815.5C 1637.18,884.193 1673.68,957.527 1701.5,1035.5C 1659.23,1037.77 1617.89,1032.6 1577.5,1020C 1528.79,1003.89 1482.96,982.061 1440,954.5C 1456.59,911.495 1482.42,874.995 1517.5,845C 1538.06,829.049 1561.06,818.549 1586.5,813.5 Z"/></g>
<g><path style="opacity:1" fill="#304d9c" d="M 1218.5,830.5 C 1281.83,874.978 1345.33,919.311 1409,963.5C 1393.14,1007.93 1381.81,1053.6 1375,1100.5C 1372.54,1119.45 1370.54,1138.45 1369,1157.5C 1335.73,1052.44 1263.89,1003.11 1153.5,1009.5C 1163.49,945.527 1185.16,885.861 1218.5,830.5 Z"/></g>
<g><path style="opacity:1" fill="#314d9c" d="M 924.5,928.5 C 925.117,928.611 925.617,928.944 926,929.5C 934.55,979.799 942.55,1030.13 950,1080.5C 930.326,1090.42 910.826,1100.42 891.5,1110.5C 885.985,1072.08 879.818,1033.74 873,995.5C 871.779,988.519 871.112,981.519 871,974.5C 889.025,959.302 906.859,943.968 924.5,928.5 Z"/></g>
<g><path style="opacity:1" fill="#304d9c" d="M 1429.5,977.5 C 1465.23,998.862 1502.56,1017.36 1541.5,1033C 1586.07,1050.29 1632.23,1059.46 1680,1060.5C 1690.18,1060.34 1700.34,1060 1710.5,1059.5C 1716.43,1078.79 1722.26,1098.13 1728,1117.5C 1731.17,1130.18 1734.34,1142.85 1737.5,1155.5C 1657.07,1145.48 1577.07,1147.98 1497.5,1163C 1469.35,1169.08 1441.35,1175.75 1413.5,1183C 1405.87,1184.73 1399.04,1183.23 1393,1178.5C 1394.17,1109.49 1406.34,1042.49 1429.5,977.5 Z"/></g>
<g><path style="opacity:1" fill="#314e9c" d="M 1819.5,984.5 C 1842.21,1022.93 1862.05,1062.93 1879,1104.5C 1902.06,1161.35 1921.73,1219.35 1938,1278.5C 1938.37,1287.73 1935.37,1295.73 1929,1302.5C 1907.49,1322.85 1882.66,1338.02 1854.5,1348C 1838.76,1353.92 1822.76,1358.58 1806.5,1362C 1838.98,1348.77 1869.64,1332.43 1898.5,1313C 1909.71,1304.45 1911.21,1294.62 1903,1283.5C 1889.81,1272.32 1874.98,1263.82 1858.5,1258C 1734.43,1215.79 1608.43,1209.12 1480.5,1238C 1405.56,1256.87 1333.89,1284.2 1265.5,1320C 1220.5,1343.99 1176.17,1368.65 1132.5,1394C 1248.45,1297.87 1380.78,1235.2 1529.5,1206C 1645.33,1184.92 1758.66,1193.92 1869.5,1233C 1883.52,1238.43 1897.35,1244.26 1911,1250.5C 1905.2,1231.08 1899.36,1211.58 1893.5,1192C 1869.29,1184.53 1844.96,1177.53 1820.5,1171C 1801.65,1166.64 1782.65,1163.14 1763.5,1160.5C 1755.92,1125.01 1745.92,1090.18 1733.5,1056C 1753.96,1051.1 1772.62,1042.44 1789.5,1030C 1804.14,1017.88 1814.14,1002.71 1819.5,984.5 Z"/></g>
<g><path style="opacity:1" fill="#314d9c" d="M 797.5,1038.5 C 799.068,1040.81 799.902,1043.48 800,1046.5C 806.001,1082.83 811.667,1119.17 817,1155.5C 802.081,1165.04 787.248,1174.71 772.5,1184.5C 767.136,1157.99 762.302,1131.32 758,1104.5C 756.446,1095.52 755.446,1086.52 755,1077.5C 769.363,1064.63 783.529,1051.63 797.5,1038.5 Z"/></g>
<g><path style="opacity:1" fill="#304d9c" d="M 789.5,1389.5 C 739.331,1389.83 689.331,1389.5 639.5,1388.5C 722.632,1332.1 805.965,1275.93 889.5,1220C 927.043,1195.48 965.376,1172.14 1004.5,1150C 1042.63,1127.96 1083.3,1112.62 1126.5,1104C 1205.38,1089.39 1254.38,1120.55 1273.5,1197.5C 1175.57,1242.4 1081.24,1293.24 990.5,1350C 971.64,1362.26 953.306,1375.26 935.5,1389C 886.834,1389.5 838.168,1389.67 789.5,1389.5 Z"/></g>
<g><path style="opacity:1" fill="#314e9c" d="M 688.5,1137.5 C 689.117,1137.61 689.617,1137.94 690,1138.5C 694.558,1166.85 699.225,1195.18 704,1223.5C 704.667,1226.17 704.667,1228.83 704,1231.5C 692.305,1240.03 680.472,1248.36 668.5,1256.5C 663.554,1227.99 658.554,1199.49 653.5,1171C 664.824,1159.36 676.491,1148.2 688.5,1137.5 Z"/></g>
<g><path style="opacity:1" fill="#334f9d" d="M 592.5,1227.5 C 597.513,1251.4 601.847,1275.57 605.5,1300C 605.646,1302.03 604.98,1303.7 603.5,1305C 596,1310.5 588.5,1316 581,1321.5C 576.568,1297.91 572.901,1274.24 570,1250.5C 577.702,1242.96 585.202,1235.3 592.5,1227.5 Z"/></g>
<g><path style="opacity:1" fill="#334f9d" d="M 523.5,1295.5 C 528.275,1315.83 531.442,1336.49 533,1357.5C 527.258,1362.29 521.425,1366.95 515.5,1371.5C 512.207,1352.33 508.874,1333.16 505.5,1314C 511.681,1307.99 517.681,1301.82 523.5,1295.5 Z"/></g>
<g><path style="opacity:1" fill="#777777" d="M 1619.5,1352.5 C 1573.66,1352.17 1528,1352.5 1482.5,1353.5C 1481.24,1353.54 1480.24,1353.04 1479.5,1352C 1526.34,1351.17 1573,1351.34 1619.5,1352.5 Z"/></g>
<g><path style="opacity:1" fill="#000000" d="M 1482.5,1353.5 C 1528,1352.5 1573.66,1352.17 1619.5,1352.5C 1650.08,1355.79 1677.08,1367.29 1700.5,1387C 1728.46,1412.74 1749.63,1443.24 1764,1478.5C 1785.86,1532.48 1796.7,1588.65 1796.5,1647C 1796.98,1703.28 1787.48,1757.78 1768,1810.5C 1752.69,1851.46 1727.85,1885.29 1693.5,1912C 1671.48,1927.18 1647.14,1936.34 1620.5,1939.5C 1574.33,1939.83 1528.33,1939.5 1482.5,1938.5C 1508.01,1928.5 1529.84,1913.17 1548,1892.5C 1572.27,1862.98 1590.6,1829.98 1603,1793.5C 1628.32,1716.23 1633.65,1637.57 1619,1557.5C 1610.95,1513.41 1595.61,1472.07 1573,1433.5C 1556.3,1405.8 1534.47,1382.97 1507.5,1365C 1499.38,1360.61 1491.05,1356.77 1482.5,1353.5 Z"/></g>
<g><path style="opacity:1" fill="#000000" d="M 1428.5,1367.5 C 1439.55,1367.12 1450.55,1367.62 1461.5,1369C 1486.16,1377.92 1506.99,1392.42 1524,1412.5C 1549.1,1443.37 1567.44,1478.03 1579,1516.5C 1603.74,1603.26 1603.41,1689.92 1578,1776.5C 1566.77,1814.3 1548.77,1848.3 1524,1878.5C 1472.77,1935.6 1418.6,1938.43 1361.5,1887C 1335.21,1859.34 1315.37,1827.5 1302,1791.5C 1267.78,1692.97 1268.11,1594.64 1303,1496.5C 1318.18,1455.25 1342.35,1420.42 1375.5,1392C 1391.47,1380.01 1409.14,1371.85 1428.5,1367.5 Z"/></g>
<g><path style="opacity:1" fill="#dd4639" d="M 272.5,1385.5 C 299.662,1386.5 326.995,1386.83 354.5,1386.5C 326.997,1387.83 299.33,1387.83 271.5,1386.5C 271.624,1385.89 271.957,1385.56 272.5,1385.5 Z"/></g>
<g><path style="opacity:1" fill="#e2e6f1" d="M 639.5,1388.5 C 689.331,1389.5 739.331,1389.83 789.5,1389.5C 739.002,1390.67 688.335,1390.83 637.5,1390C 638.044,1389.28 638.711,1388.78 639.5,1388.5 Z"/></g>
<g><path style="opacity:1" fill="#304d9c" d="M 1388.5,1938.5 C 1069.67,1939.5 750.667,1939.83 431.5,1939.5C 403.087,1933.53 387.753,1916.03 385.5,1887C 387.858,1859.31 402.524,1841.97 429.5,1835C 641.833,1834.67 854.167,1834.33 1066.5,1834C 1076.25,1829.33 1078.75,1822.16 1074,1812.5C 1072.27,1810.38 1070.1,1808.88 1067.5,1808C 807.167,1807.67 546.833,1807.33 286.5,1807C 259.74,1802.57 243.907,1787.07 239,1760.5C 238.328,1729.49 253.161,1710.32 283.5,1703C 524.833,1702.67 766.167,1702.33 1007.5,1702C 1018.02,1697.8 1020.85,1690.63 1016,1680.5C 1014.06,1677.89 1011.56,1676.06 1008.5,1675C 729.833,1674.67 451.167,1674.33 172.5,1674C 138.817,1663.46 125.65,1640.96 133,1606.5C 141.397,1588.05 155.564,1576.88 175.5,1573C 430.167,1572.67 684.833,1572.33 939.5,1572C 947.675,1569.49 951.175,1563.99 950,1555.5C 948.833,1550.33 945.667,1547.17 940.5,1546C 663.167,1545.67 385.833,1545.33 108.5,1545C 78.811,1538.81 62.811,1520.65 60.5,1490.5C 63.5455,1462.28 78.8789,1444.78 106.5,1438C 405.169,1437.82 703.836,1437.32 1002.5,1436.5C 1042.54,1436.09 1081.87,1440.92 1120.5,1451C 1180.43,1469.26 1219.26,1508.43 1237,1568.5C 1239.55,1579.13 1241.88,1589.8 1244,1600.5C 1246.05,1639.76 1250.39,1678.76 1257,1717.5C 1266.18,1771.05 1285.18,1820.72 1314,1866.5C 1334.13,1895.46 1358.96,1919.46 1388.5,1938.5 Z"/></g>
<g><path style="opacity:1" fill="#4c65a9" d="M 1388.5,1938.5 C 1389.29,1938.78 1389.96,1939.28 1390.5,1940C 1070.67,1940.83 751,1940.67 431.5,1939.5C 750.667,1939.83 1069.67,1939.5 1388.5,1938.5 Z"/></g>
<g><path style="opacity:1" fill="#777777" d="M 1482.5,1938.5 C 1528.33,1939.5 1574.33,1939.83 1620.5,1939.5C 1573.67,1940.66 1526.67,1940.83 1479.5,1940C 1480.24,1938.96 1481.24,1938.46 1482.5,1938.5 Z"/></g>
</svg>
